<mxfile host="app.diagrams.net" modified="2024-04-22T23:02:34.423Z" agent="Mozilla/5.0 (Windows NT 10.0; Win64; x64) AppleWebKit/537.36 (KHTML, like Gecko) Chrome/121.0.0.0 Safari/537.36 OPR/107.0.0.0" etag="d5HE6IyfZjCbgGtBwAeu" version="24.2.8" type="github">
  <diagram name="PÃ¡gina-1" id="Ko9ylqlvEA_0ddAmZ_K2">
    <mxGraphModel dx="793" dy="432" grid="1" gridSize="10" guides="1" tooltips="1" connect="1" arrows="1" fold="1" page="1" pageScale="1" pageWidth="827" pageHeight="1169" math="0" shadow="0">
      <root>
        <mxCell id="0" />
        <mxCell id="1" parent="0" />
        <mxCell id="UyDBP-G-TsvypwnIzBjD-3" value="" style="edgeStyle=orthogonalEdgeStyle;rounded=0;orthogonalLoop=1;jettySize=auto;html=1;" edge="1" parent="1" source="UyDBP-G-TsvypwnIzBjD-1" target="UyDBP-G-TsvypwnIzBjD-9">
          <mxGeometry relative="1" as="geometry">
            <mxPoint x="414" y="520" as="targetPoint" />
          </mxGeometry>
        </mxCell>
        <mxCell id="UyDBP-G-TsvypwnIzBjD-1" value="ALUNO(A)" style="rounded=0;whiteSpace=wrap;html=1;fontColor=#000000;labelBackgroundColor=none;labelBorderColor=none;" vertex="1" parent="1">
          <mxGeometry x="314" y="80" width="200" height="80" as="geometry" />
        </mxCell>
        <mxCell id="UyDBP-G-TsvypwnIzBjD-4" value="&amp;nbsp;Localizar Curso" style="rounded=0;whiteSpace=wrap;html=1;fontColor=#000000;labelBackgroundColor=none;labelBorderColor=none;" vertex="1" parent="1">
          <mxGeometry x="314" y="230" width="200" height="80" as="geometry" />
        </mxCell>
        <mxCell id="UyDBP-G-TsvypwnIzBjD-5" value="Localizar Disciplina" style="rounded=0;whiteSpace=wrap;html=1;fontColor=#000000;labelBackgroundColor=none;labelBorderColor=none;" vertex="1" parent="1">
          <mxGeometry x="314" y="380" width="200" height="80" as="geometry" />
        </mxCell>
        <mxCell id="UyDBP-G-TsvypwnIzBjD-7" value="Acessar Material de Estudo&amp;nbsp;&amp;nbsp;" style="rounded=0;whiteSpace=wrap;html=1;fontColor=#000000;labelBackgroundColor=none;labelBorderColor=none;" vertex="1" parent="1">
          <mxGeometry x="314" y="520" width="200" height="80" as="geometry" />
        </mxCell>
        <mxCell id="UyDBP-G-TsvypwnIzBjD-8" value="Visualizar Nota&amp;nbsp;" style="rounded=0;whiteSpace=wrap;html=1;fontColor=#000000;labelBackgroundColor=none;labelBorderColor=none;" vertex="1" parent="1">
          <mxGeometry x="314" y="660" width="200" height="80" as="geometry" />
        </mxCell>
        <mxCell id="UyDBP-G-TsvypwnIzBjD-9" value="Atualizar Dados Cadastrais" style="rounded=0;whiteSpace=wrap;html=1;fontColor=#000000;labelBackgroundColor=none;labelBorderColor=none;" vertex="1" parent="1">
          <mxGeometry x="314" y="800" width="200" height="80" as="geometry" />
        </mxCell>
      </root>
    </mxGraphModel>
  </diagram>
</mxfile>
